<?xml version="1.0" encoding="utf-8"?>
<!-- Generator: Adobe Illustrator 24.0.1, SVG Export Plug-In . SVG Version: 6.00 Build 0)  -->
<svg version="1.1" baseProfile="basic" id="Camada_1"
	 xmlns="http://www.w3.org/2000/svg" xmlns:xlink="http://www.w3.org/1999/xlink" x="0px" y="0px" viewBox="0 0 8.3 13.6"
	 xml:space="preserve">
<style type="text/css">
	.st0{fill:#4A4A4A;}
</style>
<title>Ativo 1</title>
<g id="Camada_2_1_">
	<g id="Camada_1-2">
		<path class="st0" d="M0.3,6.3l6.1-6.1c0.3-0.3,0.8-0.3,1.1,0l0.7,0.7C8.2,1,8.3,1.2,8.3,1.4c0,0.2-0.1,0.4-0.2,0.6L3.3,6.8
			l4.8,4.8c0.1,0.1,0.2,0.3,0.2,0.5c0,0.2-0.1,0.4-0.2,0.5l-0.7,0.7c-0.3,0.3-0.8,0.3-1.1,0L0.3,7.3C0.1,7.2,0,7,0,6.8
			C0,6.6,0.1,6.4,0.3,6.3z"/>
	</g>
</g>
</svg>
